# Blender 4.3.2
# www.blender.org
mtllib space.mtl
o Sphere
v 0.000000 7.653671 -18.477594
v 0.000000 0.000000 -20.000004
v 0.000000 -7.653671 -18.477594
v 0.000000 -18.477594 -7.653671
v 2.928933 18.477594 -7.071070
v 5.411962 14.142138 -13.065632
v 7.071070 7.653671 -17.071070
v 7.653671 0.000000 -18.477594
v 7.071070 -7.653671 -17.071070
v 5.411962 -14.142138 -13.065632
v 2.928933 -18.477594 -7.071070
v 5.411963 18.477594 -5.411962
v 10.000002 14.142138 -10.000001
v 13.065633 7.653671 -13.065632
v 14.142139 0.000000 -14.142137
v 13.065633 -7.653671 -13.065632
v 10.000002 -14.142138 -10.000001
v 5.411963 -18.477594 -5.411962
v 7.071070 18.477594 -2.928932
v 13.065632 14.142138 -5.411960
v 17.071072 7.653671 -7.071068
v 18.477594 0.000000 -7.653667
v 17.071072 -7.653671 -7.071068
v 13.065632 -14.142138 -5.411960
v 7.071070 -18.477594 -2.928932
v 7.653671 18.477594 0.000001
v 14.142137 14.142138 0.000002
v 18.477594 7.653671 0.000002
v 20.000004 0.000000 0.000003
v 18.477594 -7.653671 0.000002
v 14.142137 -14.142138 0.000002
v 7.653671 -18.477594 0.000001
v 7.071069 18.477594 2.928934
v 13.065629 14.142138 5.411964
v 17.071070 7.653671 7.071072
v 18.477592 0.000000 7.653674
v 17.071070 -7.653671 7.071072
v 13.065629 -14.142138 5.411964
v 7.071069 -18.477594 2.928934
v 5.411961 18.477594 5.411963
v 9.999998 14.142138 10.000003
v 13.065629 7.653671 13.065634
v 14.142135 0.000000 14.142141
v 13.065629 -7.653671 13.065634
v 9.999998 -14.142138 10.000003
v 5.411961 -18.477594 5.411963
v 2.928931 18.477594 7.071070
v 5.411957 14.142138 13.065632
v 7.071065 7.653671 17.071072
v 7.653664 0.000000 18.477596
v 7.071065 -7.653671 17.071072
v 5.411957 -14.142138 13.065632
v 2.928931 -18.477594 7.071070
v -0.000002 18.477594 7.653671
v -0.000004 14.142138 14.142136
v -0.000005 7.653671 18.477592
v -0.000007 0.000000 20.000004
v -0.000005 -7.653671 18.477592
v -0.000004 -14.142138 14.142136
v -0.000002 -18.477594 7.653671
v 0.000000 -20.000004 0.000000
v 0.000000 20.000004 0.000000
v -2.928935 18.477594 7.071068
v -5.411966 14.142138 13.065628
v -7.071073 7.653671 17.071066
v -7.653677 0.000000 18.477591
v -7.071073 -7.653671 17.071066
v -5.411966 -14.142138 13.065628
v -2.928935 -18.477594 7.071068
v -5.411964 18.477594 5.411960
v -10.000005 14.142138 9.999996
v -13.065634 7.653671 13.065627
v -14.142144 0.000000 14.142132
v -13.065634 -7.653671 13.065627
v -10.000005 -14.142138 9.999996
v -5.411964 -18.477594 5.411960
v -7.071071 18.477594 2.928930
v -13.065632 14.142138 5.411955
v -17.071072 7.653671 7.071063
v -18.477596 0.000000 7.653661
v -17.071072 -7.653671 7.071063
v -13.065632 -14.142138 5.411955
v -7.071071 -18.477594 2.928930
v -7.653671 18.477594 -0.000004
v -14.142135 14.142138 -0.000007
v -18.477591 7.653671 -0.000007
v -20.000002 0.000000 -0.000010
v -18.477591 -7.653671 -0.000007
v -14.142135 -14.142138 -0.000007
v -7.653671 -18.477594 -0.000004
v -7.071068 18.477594 -2.928936
v -13.065625 14.142138 -5.411967
v -17.071066 7.653671 -7.071075
v -18.477589 0.000000 -7.653679
v -17.071066 -7.653671 -7.071075
v -13.065625 -14.142138 -5.411967
v -7.071068 -18.477594 -2.928936
v -5.411960 18.477594 -5.411966
v -9.999993 14.142138 -10.000005
v -13.065624 7.653671 -13.065637
v -14.142130 0.000000 -14.142145
v -13.065624 -7.653671 -13.065637
v -9.999993 -14.142138 -10.000005
v -5.411960 -18.477594 -5.411966
v -2.928929 18.477594 -7.071072
v -5.411952 14.142138 -13.065632
v -7.071060 7.653671 -17.071072
v -7.653659 0.000000 -18.477598
v -7.071060 -7.653671 -17.071072
v -5.411952 -14.142138 -13.065632
v -2.928929 -18.477594 -7.071072
v 0.000005 18.477594 -7.653671
v 0.000009 14.142138 -14.142135
v 0.000009 -14.142138 -14.142135
vn -0.1098 0.8264 0.5522
vn -0.1915 0.1915 0.9626
vn -0.1632 -0.5481 0.8203
vn -0.0388 -0.9800 0.1949
vn -0.0388 0.9800 0.1949
vn -0.1632 0.5481 0.8203
vn -0.1915 -0.1915 0.9626
vn -0.1098 -0.8264 0.5522
vn -0.1104 0.9800 0.1653
vn -0.4647 0.5481 0.6954
vn -0.5453 -0.1915 0.8161
vn -0.3128 -0.8264 0.4681
vn -0.3128 0.8264 0.4681
vn -0.5453 0.1915 0.8161
vn -0.4647 -0.5481 0.6954
vn -0.1104 -0.9800 0.1653
vn -0.8161 -0.1915 0.5453
vn -0.4681 -0.8264 0.3128
vn -0.4681 0.8264 0.3128
vn -0.8161 0.1915 0.5453
vn -0.6954 -0.5481 0.4647
vn -0.1653 -0.9800 0.1104
vn -0.1653 0.9800 0.1104
vn -0.6954 0.5481 0.4647
vn -0.5522 0.8264 0.1098
vn -0.9626 0.1915 0.1915
vn -0.8203 -0.5481 0.1632
vn -0.1949 -0.9800 0.0388
vn -0.1949 0.9800 0.0388
vn -0.8203 0.5481 0.1632
vn -0.9626 -0.1915 0.1915
vn -0.5522 -0.8264 0.1098
vn -0.8203 -0.5481 -0.1632
vn -0.1949 -0.9800 -0.0388
vn -0.1949 0.9800 -0.0388
vn -0.8203 0.5481 -0.1632
vn -0.9626 -0.1915 -0.1915
vn -0.5522 -0.8264 -0.1098
vn -0.5522 0.8264 -0.1098
vn -0.9626 0.1915 -0.1915
vn -0.1653 0.9800 -0.1104
vn -0.6954 0.5481 -0.4647
vn -0.8161 -0.1915 -0.5453
vn -0.4681 -0.8264 -0.3128
vn -0.4681 0.8264 -0.3128
vn -0.8161 0.1915 -0.5453
vn -0.6954 -0.5481 -0.4647
vn -0.1653 -0.9800 -0.1104
vn -0.3128 -0.8264 -0.4681
vn -0.3128 0.8264 -0.4681
vn -0.5453 0.1915 -0.8161
vn -0.4647 -0.5481 -0.6954
vn -0.1104 -0.9800 -0.1653
vn -0.1104 0.9800 -0.1653
vn -0.4647 0.5481 -0.6954
vn -0.5453 -0.1915 -0.8161
vn -0.1098 0.8264 -0.5522
vn -0.1915 0.1915 -0.9626
vn -0.1632 -0.5481 -0.8203
vn -0.0388 -0.9800 -0.1949
vn -0.0388 0.9800 -0.1949
vn -0.1632 0.5481 -0.8203
vn -0.1915 -0.1915 -0.9626
vn -0.1098 -0.8264 -0.5522
vn 0.0388 -0.9800 -0.1949
vn 0.0388 0.9800 -0.1949
vn 0.1632 0.5481 -0.8203
vn 0.1915 -0.1915 -0.9626
vn 0.1098 -0.8264 -0.5522
vn 0.1098 0.8264 -0.5522
vn 0.1915 0.1915 -0.9626
vn 0.1632 -0.5481 -0.8203
vn 0.4647 0.5481 -0.6954
vn 0.5453 -0.1915 -0.8161
vn 0.3128 -0.8264 -0.4681
vn 0.3128 0.8264 -0.4681
vn 0.5453 0.1915 -0.8161
vn 0.4647 -0.5481 -0.6954
vn 0.1104 -0.9800 -0.1653
vn 0.1104 0.9800 -0.1653
vn 0.4681 0.8264 -0.3128
vn 0.8161 0.1915 -0.5453
vn 0.6954 -0.5481 -0.4647
vn 0.1653 -0.9800 -0.1104
vn 0.1653 0.9800 -0.1104
vn 0.6954 0.5481 -0.4647
vn 0.8161 -0.1915 -0.5453
vn 0.4681 -0.8264 -0.3128
vn 0.9626 0.1915 -0.1915
vn 0.8203 -0.5481 -0.1632
vn 0.1949 -0.9800 -0.0388
vn 0.1949 0.9800 -0.0388
vn 0.8203 0.5481 -0.1632
vn 0.9626 -0.1915 -0.1915
vn 0.5522 -0.8264 -0.1098
vn 0.5522 0.8264 -0.1098
vn 0.1949 0.9800 0.0388
vn 0.8203 0.5481 0.1632
vn 0.9626 -0.1915 0.1915
vn 0.5522 -0.8264 0.1098
vn 0.5522 0.8264 0.1098
vn 0.9626 0.1915 0.1915
vn 0.8203 -0.5481 0.1632
vn 0.1949 -0.9800 0.0388
vn 0.8161 -0.1915 0.5453
vn 0.4681 -0.8264 0.3128
vn 0.4681 0.8264 0.3128
vn 0.8161 0.1915 0.5453
vn 0.6954 -0.5481 0.4647
vn 0.1653 -0.9800 0.1104
vn 0.1653 0.9800 0.1104
vn 0.6954 0.5481 0.4647
vn 0.3128 0.8264 0.4681
vn 0.5453 0.1915 0.8161
vn 0.4647 -0.5481 0.6954
vn 0.1104 -0.9800 0.1653
vn 0.1104 0.9800 0.1653
vn 0.4647 0.5481 0.6954
vn 0.5453 -0.1915 0.8161
vn 0.3128 -0.8264 0.4681
vn 0.1632 -0.5481 0.8203
vn 0.0388 -0.9800 0.1949
vn 0.0388 0.9800 0.1949
vn 0.1632 0.5481 0.8203
vn 0.1915 -0.1915 0.9626
vn 0.1098 -0.8264 0.5522
vn 0.1098 0.8264 0.5522
vn 0.1915 0.1915 0.9626
vt 0.125000 0.250000
vt 0.125000 0.312500
vt 0.250000 0.312500
vt 0.250000 0.250000
vt 0.375000 0.250000
vt 0.375000 0.312500
vt 0.500000 0.312500
vt 0.500000 0.250000
vt 0.625000 0.250000
vt 0.625000 0.312500
vt 0.750000 0.312500
vt 0.750000 0.250000
vt 0.875000 0.250000
vt 0.875000 0.312500
vt 1.000000 0.281250
vt 0.000000 0.281250
vt 0.000000 0.343750
vt 0.125000 0.375000
vt 0.250000 0.375000
vt 0.375000 0.375000
vt 0.500000 0.375000
vt 0.625000 0.375000
vt 0.750000 0.375000
vt 0.875000 0.375000
vt 1.000000 0.343750
vt 0.500000 0.437500
vt 0.625000 0.437500
vt 0.750000 0.437500
vt 0.875000 0.437500
vt 0.125000 0.437500
vt 0.250000 0.437500
vt 0.375000 0.437500
vt 1.000000 0.406250
vt 0.000000 0.406250
vt 0.125000 0.500000
vt 0.250000 0.500000
vt 0.375000 0.500000
vt 0.500000 0.500000
vt 0.625000 0.500000
vt 0.750000 0.500000
vt 0.875000 0.500000
vt 1.000000 0.468750
vt 0.000000 0.468750
vt 0.625000 0.562500
vt 0.750000 0.562500
vt 0.875000 0.562500
vt 1.000000 0.531250
vt 0.000000 0.531250
vt 0.125000 0.562500
vt 0.250000 0.562500
vt 0.375000 0.562500
vt 0.500000 0.562500
vt 0.000000 0.593750
vt 0.125000 0.625000
vt 0.250000 0.625000
vt 0.375000 0.625000
vt 0.500000 0.625000
vt 0.625000 0.625000
vt 0.750000 0.625000
vt 0.875000 0.625000
vt 1.000000 0.593750
vt 0.750000 0.687500
vt 0.875000 0.687500
vt 0.125000 0.687500
vt 0.250000 0.687500
vt 0.375000 0.687500
vt 0.500000 0.687500
vt 0.625000 0.687500
vt 1.000000 0.656250
vt 0.000000 0.656250
vt 0.125000 0.750000
vt 0.250000 0.750000
vt 0.375000 0.750000
vt 0.500000 0.750000
vt 0.625000 0.750000
vt 0.750000 0.750000
vt 0.875000 0.750000
vt 1.000000 0.718750
vt 0.000000 0.718750
vt 0.875000 0.812500
vt 1.000000 0.781250
vt 0.000000 0.781250
vt 0.125000 0.812500
vt 0.250000 0.812500
vt 0.375000 0.812500
vt 0.500000 0.812500
vt 0.625000 0.812500
vt 0.750000 0.812500
vt 0.250000 0.875000
vt 0.375000 0.875000
vt 0.500000 0.875000
vt 0.625000 0.875000
vt 0.750000 0.875000
vt 0.875000 0.875000
vt 0.125000 0.875000
vt 1.000000 0.843750
vt 0.000000 0.843750
vt 0.125000 0.937500
vt 0.250000 0.937500
vt 0.375000 0.937500
vt 0.500000 0.937500
vt 0.625000 0.937500
vt 0.750000 0.937500
vt 0.875000 0.937500
vt 1.000000 0.906250
vt 0.000000 0.906250
vt 0.375000 1.000000
vt 0.500000 1.000000
vt 0.625000 1.000000
vt 0.750000 1.000000
vt 0.875000 1.000000
vt 1.000000 0.968750
vt 0.000000 0.968750
vt 0.125000 1.000000
vt 0.250000 1.000000
vt 0.000000 0.031250
vt 0.125000 0.062500
vt 0.125000 0.000000
vt 0.250000 0.000000
vt 0.250000 0.062500
vt 0.375000 0.062500
vt 0.375000 0.000000
vt 0.500000 0.000000
vt 0.500000 0.062500
vt 0.625000 0.062500
vt 0.625000 0.000000
vt 0.750000 -0.000000
vt 0.750000 0.062500
vt 0.875000 0.062500
vt 0.875000 -0.000000
vt 1.000000 0.031250
vt 0.500000 0.125000
vt 0.625000 0.125000
vt 0.750000 0.125000
vt 0.875000 0.125000
vt 0.125000 0.125000
vt 0.250000 0.125000
vt 0.375000 0.125000
vt 1.000000 0.093750
vt 0.000000 0.093750
vt 0.125000 0.187500
vt 0.250000 0.187500
vt 0.375000 0.187500
vt 0.500000 0.187500
vt 0.625000 0.187500
vt 0.750000 0.187500
vt 0.875000 0.187500
vt 1.000000 0.156250
vt 0.000000 0.156250
vt 1.000000 0.218750
vt 0.000000 0.218750
s 0
usemtl Material.002
f 4/1/1 11/2/1 10/3/1 114/4/1
f 3/5/2 9/6/2 8/7/2 2/8/2
f 1/9/3 7/10/3 6/11/3 113/12/3
f 112/13/4 5/14/4 62/15/4
f 61/16/5 11/2/5 4/1/5
f 114/4/6 10/3/6 9/6/6 3/5/6
f 2/8/7 8/7/7 7/10/7 1/9/7
f 113/12/8 6/11/8 5/14/8 112/13/8
f 61/17/9 18/18/9 11/2/9
f 10/3/10 17/19/10 16/20/10 9/6/10
f 8/7/11 15/21/11 14/22/11 7/10/11
f 6/11/12 13/23/12 12/24/12 5/14/12
f 11/2/13 18/18/13 17/19/13 10/3/13
f 9/6/14 16/20/14 15/21/14 8/7/14
f 7/10/15 14/22/15 13/23/15 6/11/15
f 5/14/16 12/24/16 62/25/16
f 15/21/17 22/26/17 21/27/17 14/22/17
f 13/23/18 20/28/18 19/29/18 12/24/18
f 18/18/19 25/30/19 24/31/19 17/19/19
f 16/20/20 23/32/20 22/26/20 15/21/20
f 14/22/21 21/27/21 20/28/21 13/23/21
f 12/24/22 19/29/22 62/33/22
f 61/34/23 25/30/23 18/18/23
f 17/19/24 24/31/24 23/32/24 16/20/24
f 25/30/25 32/35/25 31/36/25 24/31/25
f 23/32/26 30/37/26 29/38/26 22/26/26
f 21/27/27 28/39/27 27/40/27 20/28/27
f 19/29/28 26/41/28 62/42/28
f 61/43/29 32/35/29 25/30/29
f 24/31/30 31/36/30 30/37/30 23/32/30
f 22/26/31 29/38/31 28/39/31 21/27/31
f 20/28/32 27/40/32 26/41/32 19/29/32
f 28/39/33 35/44/33 34/45/33 27/40/33
f 26/41/34 33/46/34 62/47/34
f 61/48/35 39/49/35 32/35/35
f 31/36/36 38/50/36 37/51/36 30/37/36
f 29/38/37 36/52/37 35/44/37 28/39/37
f 27/40/38 34/45/38 33/46/38 26/41/38
f 32/35/39 39/49/39 38/50/39 31/36/39
f 30/37/40 37/51/40 36/52/40 29/38/40
f 61/53/41 46/54/41 39/49/41
f 38/50/42 45/55/42 44/56/42 37/51/42
f 36/52/43 43/57/43 42/58/43 35/44/43
f 34/45/44 41/59/44 40/60/44 33/46/44
f 39/49/45 46/54/45 45/55/45 38/50/45
f 37/51/46 44/56/46 43/57/46 36/52/46
f 35/44/47 42/58/47 41/59/47 34/45/47
f 33/46/48 40/60/48 62/61/48
f 41/59/49 48/62/49 47/63/49 40/60/49
f 46/54/50 53/64/50 52/65/50 45/55/50
f 44/56/51 51/66/51 50/67/51 43/57/51
f 42/58/52 49/68/52 48/62/52 41/59/52
f 40/60/53 47/63/53 62/69/53
f 61/70/54 53/64/54 46/54/54
f 45/55/55 52/65/55 51/66/55 44/56/55
f 43/57/56 50/67/56 49/68/56 42/58/56
f 53/64/57 60/71/57 59/72/57 52/65/57
f 51/66/58 58/73/58 57/74/58 50/67/58
f 49/68/59 56/75/59 55/76/59 48/62/59
f 47/63/60 54/77/60 62/78/60
f 61/79/61 60/71/61 53/64/61
f 52/65/62 59/72/62 58/73/62 51/66/62
f 50/67/63 57/74/63 56/75/63 49/68/63
f 48/62/64 55/76/64 54/77/64 47/63/64
f 54/77/65 63/80/65 62/81/65
f 61/82/66 69/83/66 60/71/66
f 59/72/67 68/84/67 67/85/67 58/73/67
f 57/74/68 66/86/68 65/87/68 56/75/68
f 55/76/69 64/88/69 63/80/69 54/77/69
f 60/71/70 69/83/70 68/84/70 59/72/70
f 58/73/71 67/85/71 66/86/71 57/74/71
f 56/75/72 65/87/72 64/88/72 55/76/72
f 68/84/73 75/89/73 74/90/73 67/85/73
f 66/86/74 73/91/74 72/92/74 65/87/74
f 64/88/75 71/93/75 70/94/75 63/80/75
f 69/83/76 76/95/76 75/89/76 68/84/76
f 67/85/77 74/90/77 73/91/77 66/86/77
f 65/87/78 72/92/78 71/93/78 64/88/78
f 63/80/79 70/94/79 62/96/79
f 61/97/80 76/95/80 69/83/80
f 76/95/81 83/98/81 82/99/81 75/89/81
f 74/90/82 81/100/82 80/101/82 73/91/82
f 72/92/83 79/102/83 78/103/83 71/93/83
f 70/94/84 77/104/84 62/105/84
f 61/106/85 83/98/85 76/95/85
f 75/89/86 82/99/86 81/100/86 74/90/86
f 73/91/87 80/101/87 79/102/87 72/92/87
f 71/93/88 78/103/88 77/104/88 70/94/88
f 81/100/89 88/107/89 87/108/89 80/101/89
f 79/102/90 86/109/90 85/110/90 78/103/90
f 77/104/91 84/111/91 62/112/91
f 61/113/92 90/114/92 83/98/92
f 82/99/93 89/115/93 88/107/93 81/100/93
f 80/101/94 87/108/94 86/109/94 79/102/94
f 78/103/95 85/110/95 84/111/95 77/104/95
f 83/98/96 90/114/96 89/115/96 82/99/96
f 61/116/97 97/117/97 90/118/97
f 89/119/98 96/120/98 95/121/98 88/122/98
f 87/123/99 94/124/99 93/125/99 86/126/99
f 85/127/100 92/128/100 91/129/100 84/130/100
f 90/118/101 97/117/101 96/120/101 89/119/101
f 88/122/102 95/121/102 94/124/102 87/123/102
f 86/126/103 93/125/103 92/128/103 85/127/103
f 84/130/104 91/129/104 62/131/104
f 94/124/105 101/132/105 100/133/105 93/125/105
f 92/128/106 99/134/106 98/135/106 91/129/106
f 97/117/107 104/136/107 103/137/107 96/120/107
f 95/121/108 102/138/108 101/132/108 94/124/108
f 93/125/109 100/133/109 99/134/109 92/128/109
f 91/129/110 98/135/110 62/139/110
f 61/140/111 104/136/111 97/117/111
f 96/120/112 103/137/112 102/138/112 95/121/112
f 104/136/113 111/141/113 110/142/113 103/137/113
f 102/138/114 109/143/114 108/144/114 101/132/114
f 100/133/115 107/145/115 106/146/115 99/134/115
f 98/135/116 105/147/116 62/148/116
f 61/149/117 111/141/117 104/136/117
f 103/137/118 110/142/118 109/143/118 102/138/118
f 101/132/119 108/144/119 107/145/119 100/133/119
f 99/134/120 106/146/120 105/147/120 98/135/120
f 107/145/121 1/9/121 113/12/121 106/146/121
f 105/147/122 112/13/122 62/150/122
f 61/151/123 4/1/123 111/141/123
f 110/142/124 114/4/124 3/5/124 109/143/124
f 108/144/125 2/8/125 1/9/125 107/145/125
f 106/146/126 113/12/126 112/13/126 105/147/126
f 111/141/127 4/1/127 114/4/127 110/142/127
f 109/143/128 3/5/128 2/8/128 108/144/128
